<svg xmlns="http://www.w3.org/2000/svg" width="19" height="15" viewBox="0 0 19 15">
    <g fill="none" fill-rule="evenodd">
        <g fill="#0A2B47" fill-rule="nonzero">
            <path d="M16.7 12l-1.3-1.5c.4-.4.6-.9.6-1.5 0-1-.6-2.7-3.9-1.4C12 6.6 11.7 3 8 3 5.8 3 4 4.8 4 7c0 1.3.6 2.4 1.6 3.2l-1.2 1.6C2.9 10.7 2 8.9 2 7c0-3.3 2.7-6 6-6 2.6 0 4.8 1.6 5.6 4C16 4.8 18 6.7 18 9c0 1.1-.5 2.2-1.3 3zM9 12h2v3H9zM6 12h2v3H6zM12 13l2 2h-2z"/>
        </g>
        <path fill="#FFF" d="M2 1h2.333L20 15h-2.333z"/>
        <path fill="#0A2B47" d="M0 1h2.333L18 15h-2.333z"/>
    </g>
</svg>
