<svg xmlns="http://www.w3.org/2000/svg" width="35" height="36" viewBox="0 0 35 36">
    <g fill="none" fill-rule="evenodd">
        <path fill="#11497B" fill-rule="nonzero" d="M13.161 18.203l4.021-4.021-4.47-4.47A7.972 7.972 0 0 1 16 9a8 8 0 0 1 8 8c0 .929-.167 1.818-.458 2.648L33.5 26a2 2 0 0 1 .214 3.014l-5.74 5.74a2 2 0 0 1-3.014-.214l-6.313-9.998A7.974 7.974 0 0 1 16 25a8 8 0 0 1-8-8c0-1.162.253-2.263.699-3.26l4.462 4.463z"/>
        <path stroke="#11497B" stroke-linecap="square" strokeWidth="2" d="M28.838 19.6H32v-6.2h-3.162c-.77 0-1.509-.443-1.848-1.264a1.985 1.985 0 0 1 .427-2.168l2.236-2.236-4.384-4.384-2.236 2.236c-.57.57-1.423.735-2.168.427-.822-.34-1.265-1.078-1.265-1.849V1h-6.2v3.162c0 .81-.492 1.531-1.239 1.838-.814.334-1.645.132-2.193-.416L7.732 3.348 3.348 7.732l2.236 2.236c.548.548.75 1.379.416 2.193A1.987 1.987 0 0 1 4.162 13.4H1v6.2h3.162c.81 0 1.53.49 1.838 1.239.334.814.132 1.645-.416 2.193l-2.236 2.236 4.384 4.384 2.236-2.236a1.985 1.985 0 0 1 2.168-.427c.82.34 1.264 1.078 1.264 1.849V32h6.2"/>
    </g>
</svg>
